# This file uses centimeters as units for non-parametric coordinates.

mtllib Cheese.mtl
g default
v -0.701212 -0.500000 0.545569
v 1.145804 -0.453795 0.017149
v -0.701212 0.500000 0.545569
v 1.145804 0.265525 0.017149
v -0.701212 0.500000 -0.545569
v 1.145804 0.265525 -0.017149
v -0.701212 -0.500000 -0.545569
v 1.145804 -0.453795 -0.017149
vt 0.336946 0.474314
vt 0.348989 0.474314
vt 0.348989 0.656748
vt 0.336946 0.656748
vt 0.355125 0.857442
vt 0.355125 0.474314
vt 0.608745 0.474314
vt 0.608745 0.857442
vt 0.263347 0.470322
vt 0.448889 0.001882
vt 0.460932 0.001882
vt 0.646475 0.470322
vt 0.614880 0.942754
vt 0.800422 0.474314
vt 0.812466 0.474314
vt 0.998008 0.942754
vt 0.001992 0.470322
vt 0.013711 0.001882
vt 0.196145 0.001882
vt 0.255612 0.470322
vt 0.653137 0.470322
vt 0.712605 0.001882
vt 0.895039 0.001882
vt 0.906757 0.470322
vn 0.275058 0.000000 0.961428
vn 0.275058 0.000000 0.961427
vn 0.275058 0.000000 0.961427
vn 0.275058 0.000000 0.961427
vn 0.125937 0.992038 0.000000
vn 0.125937 0.992038 0.000000
vn 0.125937 0.992038 0.000000
vn 0.125937 0.992038 0.000000
vn 0.275058 0.000000 -0.961427
vn 0.275058 0.000000 -0.961427
vn 0.275058 0.000000 -0.961427
vn 0.275058 0.000000 -0.961428
vn 0.025008 -0.999687 0.000000
vn 0.025008 -0.999687 0.000000
vn 0.025008 -0.999687 0.000000
vn 0.025008 -0.999687 0.000000
vn 1.000000 0.000000 0.000000
vn 1.000000 0.000000 0.000000
vn 1.000000 0.000000 0.000000
vn 1.000000 0.000000 0.000000
vn -1.000000 0.000000 0.000000
vn -1.000000 0.000000 0.000000
vn -1.000000 0.000000 0.000000
vn -1.000000 0.000000 0.000000
s off
g pCube12
usemtl initialShadingGroup
f 1/17/1 2/18/2 4/19/3 3/20/4
f 3/9/5 4/10/6 6/11/7 5/12/8
f 5/21/9 6/22/10 8/23/11 7/24/12
f 7/13/13 8/14/14 2/15/15 1/16/16
f 2/1/17 8/2/18 6/3/19 4/4/20
f 7/5/21 1/6/22 3/7/23 5/8/24
