# This file uses centimeters as units for non-parametric coordinates.

mtllib Cheese.mtl
g default
v -0.701212 -0.500000 0.545569
v 1.145804 -0.453795 0.017149
v -0.701212 0.500000 0.545569
v 1.145804 0.265525 0.017149
v -0.701212 0.500000 -0.545569
v 1.145804 0.265525 -0.017149
v -0.701212 -0.500000 -0.545569
v 1.145804 -0.453795 -0.017149
vt 0.657847 0.030132
vt 0.675510 0.030132
vt 0.675510 0.297702
vt 0.657847 0.297702
vt 0.684509 0.592053
vt 0.684509 0.030132
vt 1.056485 0.030132
vt 1.056485 0.592053
vt 0.549901 0.024277
vt 0.822030 -0.662768
vt 0.839694 -0.662768
vt 1.111823 0.024277
vt 1.065483 0.717177
vt 1.337612 0.030132
vt 1.355276 0.030132
vt 1.627405 0.717177
vt 0.166581 0.024277
vt 0.183768 -0.662768
vt 0.451338 -0.662768
vt 0.538557 0.024277
vt 1.121594 0.024278
vt 1.208813 -0.662768
vt 1.476383 -0.662768
vt 1.493570 0.024278
vn 0.275058 0.000000 0.961428
vn 0.275058 0.000000 0.961427
vn 0.275058 0.000000 0.961427
vn 0.275058 0.000000 0.961427
vn 0.125937 0.992038 0.000000
vn 0.125937 0.992038 0.000000
vn 0.125937 0.992038 0.000000
vn 0.125937 0.992038 0.000000
vn 0.275058 0.000000 -0.961427
vn 0.275058 0.000000 -0.961427
vn 0.275058 0.000000 -0.961427
vn 0.275058 0.000000 -0.961428
vn 0.025008 -0.999687 0.000000
vn 0.025008 -0.999687 0.000000
vn 0.025008 -0.999687 0.000000
vn 0.025008 -0.999687 0.000000
vn 1.000000 0.000000 0.000000
vn 1.000000 0.000000 0.000000
vn 1.000000 0.000000 0.000000
vn 1.000000 0.000000 0.000000
vn -1.000000 0.000000 0.000000
vn -1.000000 0.000000 0.000000
vn -1.000000 0.000000 0.000000
vn -1.000000 0.000000 0.000000
s off
g pCube12
usemtl initialShadingGroup
f 1/17/1 2/18/2 4/19/3 3/20/4
f 3/9/5 4/10/6 6/11/7 5/12/8
f 5/21/9 6/22/10 8/23/11 7/24/12
f 7/13/13 8/14/14 2/15/15 1/16/16
f 2/1/17 8/2/18 6/3/19 4/4/20
f 7/5/21 1/6/22 3/7/23 5/8/24
