# This file uses centimeters as units for non-parametric coordinates.

mtllib ShelfOnTheWall2.mtl
g default
v -20.629369 3.881761 21.654710
v -16.651616 3.881761 21.654710
v -20.629369 7.859513 21.654710
v -16.651616 7.859513 21.654710
v -20.629369 7.859513 12.264401
v -16.651616 7.859513 12.264401
v -20.629369 3.881761 12.264401
v -16.651616 3.881761 12.264401
v -20.629369 5.941835 21.654710
v -16.651616 5.941835 21.654710
v -16.651616 5.941835 12.264401
v -20.629369 5.941835 12.264401
v -20.629369 6.187028 12.264401
v -16.651616 6.187028 12.264401
v -16.651616 6.187027 21.654710
v -20.629369 6.187027 21.654710
v -20.629369 5.927458 21.654710
v -16.651616 5.927458 21.654710
v -16.651616 5.927457 12.264401
v -20.629369 5.927457 12.264401
v -20.629369 5.864230 12.454464
v -20.629369 5.864231 21.464647
v -20.629369 4.031076 12.454464
v -20.629369 4.031076 21.464647
v -20.629369 6.005338 21.461492
v -20.629369 6.227590 21.461492
v -20.629369 7.743590 21.461492
v -20.629369 7.743590 12.457619
v -20.629369 6.227590 12.457619
v -20.629369 6.005339 12.457619
v -20.629369 5.992306 12.457619
v -20.629369 5.992306 21.461492
v -16.800354 6.005338 21.461492
v -16.800354 6.227590 21.461492
v -16.800354 7.743590 21.461492
v -16.800354 7.743590 12.457619
v -16.800354 6.227590 12.457619
v -16.800354 6.005339 12.457619
v -16.800354 5.992306 12.457619
v -16.800354 5.992306 21.461492
v -16.800354 5.864230 12.454464
v -16.800354 5.864231 21.464647
v -16.800354 4.031076 12.454464
v -16.800354 4.031076 21.464647
vt 0.876843 0.541885
vt 0.862840 0.541885
vt 0.862840 0.325551
vt 0.876843 0.325551
vt 0.972357 0.325551
vt 0.972357 0.541885
vt 0.862019 0.541885
vt 0.862019 0.325551
vt 0.745191 0.541885
vt 0.745191 0.325551
vt 0.762577 0.757341
vt 0.775270 0.757341
vt 0.861848 0.757341
vt 0.861848 0.964773
vt 0.775270 0.964773
vt 0.762577 0.964773
vt 0.761833 0.964773
vt 0.761833 0.757341
vt 0.972357 0.757341
vt 0.972357 0.964918
vt 0.867667 0.964918
vt 0.867667 0.757341
vt 0.629033 0.325551
vt 0.629033 0.541885
vt 0.625422 0.537506
vt 0.625422 0.329929
vt 0.632737 0.330002
vt 0.632736 0.537434
vt 0.512204 0.541885
vt 0.520732 0.537506
vt 0.512204 0.325551
vt 0.520732 0.329929
vt 0.629854 0.325551
vt 0.633481 0.330002
vt 0.629854 0.541885
vt 0.633481 0.537434
vt 0.643857 0.325551
vt 0.646173 0.330002
vt 0.643857 0.541885
vt 0.646173 0.537434
vt 0.739371 0.325551
vt 0.732751 0.330002
vt 0.739371 0.541885
vt 0.732751 0.537434
vt 0.260747 0.105611
vt 0.487914 0.105611
vt 0.487914 0.321945
vt 0.260747 0.321945
vt 0.730284 0.105611
vt 0.957451 0.105611
vt 0.957451 0.321945
vt 0.730284 0.321945
vt 0.400551 0.533796
vt 0.182733 0.533796
vt 0.182733 0.325551
vt 0.400551 0.325551
vt 0.245461 0.745646
vt 0.027643 0.745646
vt 0.027643 0.537401
vt 0.245461 0.537401
vt 0.469475 0.745646
vt 0.251504 0.745646
vt 0.251504 0.537401
vt 0.469475 0.537401
vt 0.805915 0.753736
vt 0.587944 0.753736
vt 0.587944 0.545491
vt 0.805915 0.545491
vt 0.159295 0.321945
vt 0.145292 0.321945
vt 0.145292 0.105611
vt 0.159295 0.105611
vt 0.254809 0.105611
vt 0.254809 0.321945
vt 0.144471 0.321945
vt 0.144471 0.105611
vt 0.027643 0.321945
vt 0.027643 0.105611
vt 0.591030 0.105611
vt 0.605032 0.105611
vt 0.605032 0.321945
vt 0.591030 0.321945
vt 0.495515 0.321945
vt 0.495515 0.105611
vt 0.605854 0.105611
vt 0.605854 0.321945
vt 0.722682 0.105611
vt 0.722682 0.321945
vt 0.505640 0.533796
vt 0.492948 0.533796
vt 0.492948 0.325551
vt 0.505640 0.325551
vt 0.406370 0.533796
vt 0.406370 0.325551
vt 0.506385 0.533796
vt 0.506385 0.325551
vt 0.176913 0.533796
vt 0.090335 0.533796
vt 0.090335 0.325551
vt 0.176913 0.325551
vt 0.077643 0.533796
vt 0.077643 0.325551
vt 0.076898 0.533796
vt 0.076898 0.325551
vt 0.581720 0.753736
vt 0.477030 0.753736
vt 0.477030 0.545491
vt 0.581720 0.545491
vt 0.918160 0.753736
vt 0.813469 0.753736
vt 0.813469 0.545491
vt 0.918160 0.545491
vn 0.000000 0.000000 1.000000
vn 0.000000 0.000000 1.000000
vn 0.000000 0.000000 1.000000
vn 0.000000 0.000000 1.000000
vn 0.000000 0.000000 1.000000
vn 0.000000 0.000000 1.000000
vn 0.000000 1.000000 0.000000
vn 0.000000 1.000000 0.000000
vn 0.000000 1.000000 0.000000
vn 0.000000 1.000000 0.000000
vn 0.000000 0.000000 -1.000000
vn 0.000000 0.000000 -1.000000
vn 0.000000 0.000000 -1.000000
vn 0.000000 0.000000 -1.000000
vn 0.000000 0.000000 -1.000000
vn 0.000000 0.000000 -1.000000
vn 0.000000 -1.000000 0.000000
vn 0.000000 -1.000000 0.000000
vn 0.000000 -1.000000 0.000000
vn 0.000000 -1.000000 0.000000
vn 1.000000 0.000000 0.000000
vn 1.000000 0.000000 0.000000
vn 1.000000 0.000000 0.000000
vn 1.000000 0.000000 0.000000
vn 1.000000 0.000000 0.000000
vn 1.000000 0.000000 0.000000
vn -1.000000 0.000000 0.000000
vn -1.000000 0.000000 0.000000
vn -1.000000 0.000000 0.000000
vn -1.000000 0.000000 0.000000
vn -1.000000 0.000000 0.000000
vn -1.000000 0.000000 0.000000
vn -1.000000 0.000000 0.000000
vn -1.000000 0.000000 0.000000
vn 0.000000 0.000000 1.000000
vn 0.000000 0.000000 1.000000
vn 1.000000 0.000000 0.000000
vn 1.000000 0.000000 0.000000
vn 0.000000 0.000000 -1.000000
vn 0.000000 0.000000 -1.000000
vn 0.000000 0.000000 1.000000
vn 0.000000 0.000000 1.000000
vn 1.000000 0.000000 0.000000
vn 1.000000 0.000000 0.000000
vn 0.000000 0.000000 -1.000000
vn 0.000000 0.000000 -1.000000
vn -1.000000 0.000000 0.000000
vn -1.000000 0.000000 0.000000
vn -1.000000 0.000000 0.000000
vn -1.000000 0.000000 0.000000
vn -1.000000 0.000000 0.000000
vn -1.000000 0.000000 0.000000
vn -1.000000 0.000000 0.000000
vn -1.000000 0.000000 0.000000
vn -1.000000 0.000000 0.000000
vn -1.000000 0.000000 0.000000
vn -1.000000 0.000000 0.000000
vn -1.000000 0.000000 0.000000
vn -1.000000 -0.000000 0.000000
vn -1.000000 -0.000000 0.000000
vn -1.000000 -0.000000 0.000000
vn -1.000000 -0.000000 0.000000
vn -1.000000 0.000000 0.000000
vn -1.000000 0.000000 0.000000
vn -1.000000 0.000000 0.000000
vn -1.000000 0.000000 0.000000
vn -1.000000 0.000000 0.000000
vn -1.000000 0.000000 0.000000
vn -1.000000 0.000000 0.000000
vn -1.000000 0.000000 0.000000
vn -1.000000 0.000000 0.000000
vn -1.000000 0.000000 0.000000
vn -1.000000 0.000000 0.000000
vn -1.000000 0.000000 0.000000
vn -1.000000 0.000001 0.000000
vn -1.000000 0.000001 0.000000
vn -1.000000 0.000001 0.000000
vn -1.000000 0.000001 0.000000
vn -1.000000 0.000000 0.000000
vn -1.000000 0.000000 0.000000
vn -1.000000 0.000000 0.000000
vn -1.000000 0.000000 0.000000
vn -1.000000 0.000000 0.000000
vn -1.000000 0.000000 0.000000
vn -1.000000 0.000000 0.000000
vn -1.000000 0.000000 0.000000
vn -1.000000 0.000000 0.000000
vn -1.000000 0.000000 0.000000
vn -1.000000 0.000000 0.000000
vn -1.000000 0.000000 0.000000
vn -1.000000 -0.000001 0.000000
vn -1.000000 -0.000001 0.000000
vn -1.000000 -0.000001 0.000000
vn -1.000000 -0.000001 0.000000
vn -1.000000 0.000000 0.000000
vn -1.000000 0.000000 0.000000
vn -1.000000 0.000000 0.000000
vn -1.000000 0.000000 0.000000
vn 0.000000 0.000000 -1.000000
vn 0.000000 0.000000 -1.000000
vn 0.000000 0.000000 -1.000000
vn 0.000000 0.000000 -1.000000
vn 0.000000 0.000000 -1.000000
vn 0.000000 0.000000 -1.000000
vn 0.000000 0.000000 -1.000000
vn 0.000000 0.000000 -1.000000
vn 0.000000 -1.000000 0.000000
vn 0.000000 -1.000000 0.000000
vn 0.000000 -1.000000 0.000000
vn 0.000000 -1.000000 0.000000
vn 0.000000 0.000000 1.000000
vn 0.000000 0.000000 1.000000
vn 0.000000 0.000000 1.000000
vn 0.000000 0.000000 1.000000
vn 0.000000 0.000000 1.000000
vn 0.000000 0.000000 1.000000
vn 0.000000 0.000000 1.000000
vn 0.000000 0.000000 1.000000
vn 0.000000 0.000000 1.000000
vn 0.000000 0.000000 1.000000
vn 0.000000 0.000000 1.000000
vn 0.000000 0.000000 1.000000
vn 0.000000 1.000000 -0.000000
vn 0.000000 1.000000 -0.000000
vn 0.000000 1.000000 -0.000000
vn 0.000000 1.000000 -0.000000
vn 0.000000 0.000000 -1.000000
vn 0.000000 0.000000 -1.000000
vn 0.000000 0.000000 -1.000000
vn 0.000000 0.000000 -1.000000
vn 0.000000 -1.000000 0.000000
vn 0.000000 -1.000000 0.000000
vn 0.000000 -1.000000 0.000000
vn 0.000000 -1.000000 0.000000
vn 0.000000 0.000000 1.000000
vn 0.000000 0.000000 1.000000
vn 0.000000 0.000000 1.000000
vn 0.000000 0.000000 1.000000
vn 0.000000 1.000000 0.000000
vn 0.000000 1.000000 0.000000
vn 0.000000 1.000000 0.000000
vn 0.000000 1.000000 0.000000
vn 0.000000 0.000000 -1.000000
vn 0.000000 0.000000 -1.000000
vn 0.000000 0.000000 -1.000000
vn 0.000000 0.000000 -1.000000
s 1
g pCube20
usemtl initialShadingGroup
f 16/69/1 9/70/2 10/71/3 15/72/4 4/73/5 3/74/6
s off
f 3/45/7 4/46/8 6/47/9 5/48/10
s 2
f 14/79/11 11/80/12 12/81/13 13/82/14 5/83/15 6/84/16
s off
f 7/49/17 8/50/18 2/51/19 1/52/20
s 3
f 15/1/21 10/2/22 11/3/23 14/4/24 6/5/25 4/6/26
s off
f 33/11/27 34/12/28 35/13/29 36/14/30 37/15/31 38/16/32 39/17/33 40/18/34
s 1
f 17/75/35 18/76/36 10/71/3 9/70/2
s 3
f 18/7/37 19/8/38 11/3/23 10/2/22
s 2
f 12/81/13 11/80/12 19/85/39 20/86/40
s 1
f 1/77/41 2/78/42 18/76/36 17/75/35
s 3
f 2/9/43 8/10/44 19/8/38 18/7/37
s 2
f 20/86/40 19/85/39 8/87/45 7/88/46
s off
f 42/19/47 41/20/48 43/21/49 44/22/50
f 17/23/51 20/24/52 21/25/53 22/26/54
f 20/24/55 7/29/56 23/30/57 21/25/58
f 7/29/59 1/31/60 24/32/61 23/30/62
f 1/31/63 17/23/64 22/26/65 24/32/66
f 9/33/67 16/37/68 26/38/69 25/34/70
f 16/37/71 3/41/72 27/42/73 26/38/74
f 3/41/75 5/43/76 28/44/77 27/42/78
f 5/43/79 13/39/80 29/40/81 28/44/82
f 13/39/83 12/35/84 30/36/85 29/40/86
f 12/35/87 20/24/88 31/28/89 30/36/90
f 20/24/91 17/23/92 32/27/93 31/28/94
f 17/23/95 9/33/96 25/34/97 32/27/98
f 25/89/99 26/90/100 34/91/101 33/92/102
f 26/90/103 27/93/104 35/94/105 34/91/106
f 27/53/107 28/54/108 36/55/109 35/56/110
f 28/97/111 29/98/112 37/99/113 36/100/114
f 29/98/115 30/101/116 38/102/117 37/99/118
f 30/101/119 31/103/120 39/104/121 38/102/122
f 31/57/123 32/58/124 40/59/125 39/60/126
f 32/95/127 25/89/128 33/92/129 40/96/130
f 22/61/131 21/62/132 41/63/133 42/64/134
f 21/105/135 23/106/136 43/107/137 41/108/138
f 23/65/139 24/66/140 44/67/141 43/68/142
f 24/109/143 22/110/144 42/111/145 44/112/146
