# This file uses centimeters as units for non-parametric coordinates.

mtllib Shlef1.mtl
g default
v -27.720209 1.504181 -21.319820
v -21.504343 1.504181 -21.319820
v -27.720209 4.878623 -21.319820
v -21.504343 4.878623 -21.319820
v -27.720209 4.878623 -24.694263
v -21.504343 4.878623 -24.694263
v -27.720209 1.504181 -24.694263
v -21.504343 1.504181 -24.694263
v -27.720209 5.055424 -21.319820
v -21.504343 5.055424 -21.319820
v -21.504343 5.055424 -24.694263
v -27.720209 5.055424 -24.694263
v -27.720209 4.878623 -21.089647
v -21.504343 4.878623 -21.089647
v -21.504343 5.055424 -21.089647
v -27.720209 5.055424 -21.089647
v -27.720209 4.878623 -24.422274
v -27.720209 5.055424 -24.422274
v -21.504343 5.055424 -24.422274
v -21.504343 4.878623 -24.422274
v -21.504343 1.504181 -24.422272
v -27.720209 1.504181 -24.422272
v -27.720209 4.878623 -21.525646
v -27.720209 5.055424 -21.525646
v -21.504343 5.055424 -21.525646
v -21.504343 4.878623 -21.525646
v -21.504343 1.504181 -21.525646
v -27.720209 1.504181 -21.525646
v -27.497406 1.504181 -21.319820
v -27.497408 1.504181 -21.525646
v -27.497408 1.504181 -24.422272
v -27.497406 1.504181 -24.694263
v -27.497406 4.878623 -24.694263
v -27.497406 5.055424 -24.694263
v -27.497406 5.055424 -24.422274
v -27.497406 5.055424 -21.525646
v -27.497406 5.055424 -21.319820
v -27.497406 5.055424 -21.089647
v -27.497406 4.878623 -21.089647
v -27.497406 4.878623 -21.319820
v -21.770432 1.504181 -24.422272
v -21.770432 1.504181 -21.525646
v -21.770432 1.504181 -21.319820
v -21.770432 4.878623 -21.319820
v -21.770432 4.878623 -21.089647
v -21.770432 5.055424 -21.089647
v -21.770432 5.055424 -21.319820
v -21.770432 5.055424 -21.525646
v -21.770432 5.055424 -24.422274
v -21.770432 5.055424 -24.694263
v -21.770432 4.878623 -24.694263
v -21.770432 1.504181 -24.694263
v -27.497408 1.106055 -21.525646
v -27.720209 1.106055 -21.525646
v -27.497406 1.106055 -21.319820
v -27.720209 1.106055 -21.319820
v -27.720209 1.106055 -24.694263
v -27.497406 1.106055 -24.694263
v -27.497408 1.106055 -24.422272
v -27.720209 1.106055 -24.422272
v -21.770432 1.106055 -21.525646
v -21.770432 1.106055 -21.319820
v -21.504343 1.106055 -21.525646
v -21.504343 1.106055 -21.319820
v -21.770432 1.106055 -24.694263
v -21.770432 1.106055 -24.422272
v -21.504343 1.106055 -24.694263
v -21.504343 1.106055 -24.422272
v -27.497406 5.259879 -24.694263
v -27.497406 5.259879 -24.422274
v -21.770432 5.259879 -24.422274
v -21.770432 5.259879 -24.694263
v -27.720209 5.259879 -24.422274
v -27.720209 5.259879 -24.694263
v -21.504343 5.259879 -24.422274
v -21.504343 5.259879 -24.694263
v -24.633913 1.504181 -21.319820
v -24.633913 4.878623 -21.319820
v -24.517302 1.579024 -21.319820
v -24.517302 4.803780 -21.319820
v -21.887043 1.579024 -21.319820
v -21.887043 4.803780 -21.319820
v -27.389399 4.803052 -21.319820
v -27.389399 1.579752 -21.319820
v -24.741917 1.579752 -21.319820
v -24.741917 4.803052 -21.319820
v -27.388557 4.803052 -21.350664
v -27.388557 1.579752 -21.350664
v -24.742760 1.579752 -21.445049
v -24.742760 4.803052 -21.445049
v -24.633915 5.055424 -24.422274
v -24.633915 5.055424 -21.525646
v -26.625732 3.991287 -21.329691
v -25.846798 3.991287 -21.329691
v -26.625732 4.162282 -21.329691
v -25.846798 4.162282 -21.329691
v -26.625732 4.162282 -21.844622
v -25.846798 4.162282 -21.844622
v -26.625732 3.991287 -21.844622
v -25.846798 3.991287 -21.844622
v -23.452053 3.991287 -21.240286
v -22.673119 3.991287 -21.240286
v -23.452053 4.162282 -21.240286
v -22.673119 4.162282 -21.240286
v -23.452053 4.162282 -21.755217
v -22.673119 4.162282 -21.755217
v -23.452053 3.991287 -21.755217
v -22.673119 3.991287 -21.755217
vt 0.672113 0.732021
vt 0.672113 0.486734
vt 0.691884 0.486734
vt 0.691884 0.732021
vt 0.461557 0.732021
vt 0.461557 0.486734
vt 0.672113 0.457794
vt 0.691884 0.457794
vt 0.672113 0.744873
vt 0.691884 0.744873
vt 0.446596 0.486734
vt 0.446596 0.732021
vt 0.461557 0.744873
vt 0.691884 0.759735
vt 0.672113 0.759735
vt 0.446596 0.457794
vt 0.461557 0.457794
vt 0.446596 0.744873
vt 0.429865 0.744873
vt 0.429865 0.732021
vt 0.161740 0.486734
vt 0.181511 0.486734
vt 0.181511 0.732021
vt 0.161740 0.732021
vt 0.161740 0.457794
vt 0.181511 0.457794
vt 0.392066 0.486734
vt 0.392066 0.732021
vt 0.181511 0.744873
vt 0.161740 0.744873
vt 0.407028 0.486734
vt 0.407028 0.732021
vt 0.392066 0.744873
vt 0.181511 0.759735
vt 0.161740 0.759735
vt 0.392066 0.457794
vt 0.407028 0.457794
vt 0.407028 0.744873
vt 0.423759 0.732021
vt 0.423759 0.744873
vt 0.630030 0.792647
vt 0.615068 0.792647
vt 0.615068 0.763707
vt 0.630030 0.763707
vt 0.656174 0.792647
vt 0.636403 0.792647
vt 0.636403 0.763707
vt 0.656174 0.763707
vt 0.701793 0.942536
vt 0.686831 0.942536
vt 0.686831 0.913596
vt 0.701793 0.913596
vt 0.755090 0.942536
vt 0.735319 0.942536
vt 0.735319 0.913596
vt 0.755090 0.913596
vt 0.201948 0.998008
vt 0.201948 0.763707
vt 0.204190 0.763707
vt 0.204190 0.998008
vt 0.220749 0.763707
vt 0.220749 0.998008
vt 0.211646 0.998008
vt 0.211646 0.763707
vt 0.514213 0.801137
vt 0.514213 0.763707
vt 0.526642 0.763707
vt 0.526642 0.801137
vt 0.533608 0.801137
vt 0.533608 0.763707
vt 0.546038 0.763707
vt 0.546038 0.801137
vt 0.553003 0.801137
vt 0.553003 0.763707
vt 0.565433 0.763707
vt 0.565433 0.801137
vt 0.572399 0.801137
vt 0.572399 0.763707
vt 0.584828 0.763707
vt 0.584828 0.801137
vt 0.021753 0.437627
vt 0.001982 0.437627
vt 0.001982 0.021334
vt 0.021753 0.021334
vt 0.001982 0.453822
vt 0.021753 0.453822
vt 0.001982 0.001992
vt 0.021753 0.001992
vt 0.357486 0.437627
vt 0.337715 0.437627
vt 0.337715 0.021334
vt 0.357486 0.021334
vt 0.568041 0.437627
vt 0.568041 0.021334
vt 0.357486 0.453822
vt 0.568041 0.453822
vt 0.357486 0.001992
vt 0.568041 0.001992
vt 0.583003 0.437627
vt 0.583003 0.021334
vt 0.583003 0.229480
vt 0.625981 0.437627
vt 0.609250 0.437627
vt 0.609250 0.229480
vt 0.609250 0.021334
vt 0.625981 0.021334
vt 0.609250 0.453822
vt 0.625981 0.453822
vt 0.609250 0.001992
vt 0.625981 0.001992
vt 0.632524 0.021334
vt 0.649255 0.021334
vt 0.649255 0.437627
vt 0.632524 0.437627
vt 0.649255 0.001992
vt 0.632524 0.001992
vt 0.664217 0.437627
vt 0.664217 0.021334
vt 0.664217 0.229480
vt 0.649255 0.453822
vt 0.632524 0.453822
vt 0.664217 0.001992
vt 0.664217 0.453822
vt 0.874772 0.229480
vt 0.874772 0.021334
vt 0.874772 0.437627
vt 0.874772 0.001992
vt 0.874772 0.453822
vt 0.861389 0.929791
vt 0.861389 0.913596
vt 0.876350 0.913596
vt 0.876350 0.929791
vt 0.789626 0.913596
vt 0.805822 0.913596
vt 0.805822 0.933367
vt 0.789626 0.933367
vt 0.855015 0.932938
vt 0.840054 0.932938
vt 0.840054 0.913596
vt 0.855015 0.913596
vt 0.812901 0.933367
vt 0.812901 0.913596
vt 0.832242 0.913596
vt 0.832242 0.933367
vt 0.227162 0.956152
vt 0.227162 0.763707
vt 0.236265 0.763768
vt 0.229404 0.956091
vt 0.251781 0.763707
vt 0.251781 0.956152
vt 0.249539 0.956091
vt 0.242678 0.763768
vt 0.277590 0.820327
vt 0.277590 0.763707
vt 0.315020 0.763707
vt 0.315020 0.820327
vt 0.341594 0.820327
vt 0.341594 0.763707
vt 0.379025 0.763707
vt 0.379025 0.820327
vt 0.405599 0.820328
vt 0.405599 0.763707
vt 0.443029 0.763707
vt 0.443029 0.820328
vt 0.469603 0.820328
vt 0.469603 0.763707
vt 0.507034 0.763707
vt 0.507034 0.820328
vt 0.001982 0.998008
vt 0.001982 0.763707
vt 0.194305 0.763707
vt 0.194305 0.998008
vt 0.302331 0.437627
vt 0.057043 0.437627
vt 0.057043 0.021334
vt 0.302331 0.021334
vt 0.057043 0.453822
vt 0.302331 0.453822
vt 0.044192 0.021334
vt 0.044192 0.437627
vt 0.057043 0.001992
vt 0.302331 0.001992
vt 0.044192 0.453822
vt 0.331270 0.437627
vt 0.331270 0.453822
vt 0.044192 0.001992
vt 0.029330 0.437627
vt 0.029330 0.021334
vt 0.331270 0.001992
vt 0.331270 0.021334
vt 0.029330 0.453822
vt 0.029330 0.001992
vt 0.602706 0.437627
vt 0.589854 0.437627
vt 0.589854 0.021334
vt 0.602706 0.021334
vt 0.589854 0.453822
vt 0.602706 0.453822
vt 0.589854 0.001992
vt 0.602706 0.001992
vt 0.747896 0.909624
vt 0.747896 0.893429
vt 0.993184 0.893429
vt 0.993184 0.909624
vt 0.718957 0.909624
vt 0.718957 0.893429
vt 0.753390 0.885577
vt 0.987691 0.885577
vt 0.747896 0.685282
vt 0.753390 0.693133
vt 0.993184 0.685282
vt 0.987691 0.693133
vt 0.753337 0.676805
vt 0.987743 0.676805
vt 0.747896 0.477136
vt 0.753337 0.485613
vt 0.987743 0.485613
vt 0.993184 0.477136
vt 0.747896 0.457794
vt 0.993184 0.457794
vt 0.718957 0.477136
vt 0.718957 0.457794
vt 0.591794 0.763707
vt 0.607989 0.763707
vt 0.607989 0.792647
vt 0.591794 0.792647
vt 0.679752 0.792647
vt 0.663557 0.792647
vt 0.663557 0.763707
vt 0.679752 0.763707
vt 0.708166 0.913596
vt 0.727508 0.913596
vt 0.727508 0.942536
vt 0.708166 0.942536
vt 0.781815 0.942536
vt 0.762473 0.942536
vt 0.762473 0.913596
vt 0.781815 0.913596
vt 0.697989 0.893429
vt 0.697989 0.685282
vt 0.697989 0.477136
vt 0.712851 0.477136
vt 0.712851 0.893429
vt 0.697989 0.457794
vt 0.712851 0.457794
vt 0.697989 0.909624
vt 0.712851 0.909624
vt 0.258194 0.820328
vt 0.258194 0.763707
vt 0.270624 0.763707
vt 0.270624 0.820328
vt 0.322199 0.820328
vt 0.322199 0.763707
vt 0.334629 0.763707
vt 0.334629 0.820328
vt 0.386204 0.820328
vt 0.386204 0.763707
vt 0.398633 0.763707
vt 0.398633 0.820328
vt 0.450208 0.820328
vt 0.450208 0.763707
vt 0.462638 0.763707
vt 0.462638 0.820328
vn 0.035651 0.000000 0.999364
vn 0.035651 0.000000 0.999364
vn 0.035651 0.000000 0.999364
vn 0.035651 0.000000 0.999364
vn 0.000000 1.000000 0.000000
vn 0.000000 1.000000 0.000000
vn 0.000000 1.000000 0.000000
vn 0.000000 1.000000 0.000000
vn 0.000000 0.000000 -1.000000
vn 0.000000 0.000000 -1.000000
vn 0.000000 0.000000 -1.000000
vn 0.000000 0.000000 -1.000000
vn 0.000000 -1.000000 0.000000
vn 0.000000 -1.000000 0.000000
vn 0.000000 -1.000000 0.000000
vn 0.000000 -1.000000 0.000000
vn 1.000000 0.000000 0.000000
vn 1.000000 0.000000 0.000000
vn 1.000000 0.000000 0.000000
vn 1.000000 0.000000 0.000000
vn -1.000000 0.000000 0.000000
vn -1.000000 0.000000 0.000000
vn -1.000000 0.000000 0.000000
vn -1.000000 0.000000 0.000000
vn 0.000000 0.000000 1.000000
vn 0.000000 0.000000 1.000000
vn 0.000000 0.000000 1.000000
vn 0.000000 0.000000 1.000000
vn 1.000000 0.000000 0.000000
vn 1.000000 0.000000 0.000000
vn 1.000000 0.000000 0.000000
vn 1.000000 0.000000 0.000000
vn 0.000000 0.000000 -1.000000
vn 0.000000 0.000000 -1.000000
vn 0.000000 0.000000 -1.000000
vn 0.000000 0.000000 -1.000000
vn -1.000000 0.000000 0.000000
vn -1.000000 0.000000 0.000000
vn -1.000000 0.000000 0.000000
vn -1.000000 0.000000 0.000000
vn 0.000000 -1.000000 0.000000
vn 0.000000 -1.000000 0.000000
vn 0.000000 -1.000000 0.000000
vn 0.000000 -1.000000 0.000000
vn 0.000000 -1.000000 0.000000
vn 1.000000 0.000000 0.000000
vn 1.000000 0.000000 0.000000
vn 1.000000 0.000000 0.000000
vn 1.000000 0.000000 0.000000
vn 0.000000 1.000000 0.000000
vn 0.000000 1.000000 0.000000
vn 0.000000 1.000000 0.000000
vn 0.000000 1.000000 0.000000
vn -1.000000 0.000000 0.000000
vn -1.000000 0.000000 0.000000
vn -1.000000 0.000000 0.000000
vn -1.000000 0.000000 0.000000
vn -1.000000 0.000000 0.000000
vn -1.000000 0.000000 0.000000
vn 0.000000 1.000000 0.000000
vn 0.000000 1.000000 0.000000
vn 0.000000 1.000000 0.000000
vn 0.000000 1.000000 0.000000
vn 1.000000 0.000000 0.000000
vn 1.000000 0.000000 0.000000
vn 1.000000 0.000000 0.000000
vn 1.000000 0.000000 0.000000
vn 0.000000 -1.000000 0.000000
vn 0.000000 -1.000000 0.000000
vn -1.000000 0.000000 0.000000
vn -1.000000 0.000000 0.000000
vn -1.000000 0.000000 0.000000
vn -1.000000 0.000000 0.000000
vn 0.000000 1.000000 0.000001
vn 0.000000 1.000000 0.000001
vn 0.000000 1.000000 0.000001
vn 1.000000 0.000000 0.000000
vn 1.000000 0.000000 0.000000
vn 1.000000 0.000000 0.000000
vn 1.000000 0.000000 0.000000
vn 0.000000 -1.000000 0.000000
vn 0.000000 -1.000000 0.000000
vn 0.000000 -1.000000 0.000000
vn -1.000000 0.000000 0.000000
vn -1.000000 0.000000 0.000000
vn 0.000000 -1.000000 -0.000000
vn 0.000000 -1.000000 -0.000000
vn 0.000000 -1.000000 -0.000000
vn 0.000000 -1.000000 -0.000000
vn 0.000000 -1.000000 0.000000
vn 0.000000 -1.000000 0.000000
vn 0.000000 -1.000000 0.000000
vn 0.000000 -1.000000 0.000000
vn 0.000000 -1.000000 0.000000
vn 0.000000 -1.000000 0.000000
vn 0.000000 0.000000 -1.000000
vn 0.000000 0.000000 -1.000000
vn 0.000000 0.000000 -1.000000
vn 0.000000 0.000000 -1.000000
vn 0.000000 1.000000 0.000000
vn 0.000000 1.000000 0.000000
vn 0.000000 1.000000 0.000000
vn 0.000000 1.000000 0.000000
vn 0.000000 1.000000 0.000000
vn 0.000000 1.000000 0.000000
vn 0.000000 1.000000 0.000000
vn 0.000000 1.000000 0.000000
vn 0.000000 0.000000 1.000000
vn 0.000000 0.000000 1.000000
vn 0.000000 -1.000000 0.000000
vn 0.000000 -1.000000 0.000000
vn 0.000000 0.000000 1.000000
vn 0.000000 0.000000 1.000000
vn 0.000000 0.000000 1.000000
vn 0.000000 0.000000 1.000000
vn 0.000000 -1.000000 0.000000
vn 0.000000 -1.000000 0.000000
vn 0.000000 -1.000000 0.000000
vn 0.000000 -1.000000 0.000000
vn 0.000000 -1.000000 0.000000
vn 0.000000 -1.000000 0.000000
vn 0.000000 0.000000 1.000000
vn 0.000000 0.000000 1.000000
vn 0.000000 0.000000 1.000000
vn 0.000000 0.000000 1.000000
vn 0.000000 -1.000000 0.000000
vn 0.000000 -1.000000 0.000000
vn 0.000000 0.000000 1.000000
vn 0.000000 0.000000 1.000000
vn 0.000000 1.000000 0.000000
vn 0.000000 1.000000 0.000000
vn 0.000000 1.000000 0.000000
vn 0.000000 1.000000 0.000000
vn 0.000000 1.000000 0.000000
vn 0.000000 1.000000 0.000000
vn 0.000000 1.000000 0.000000
vn 0.000000 0.000000 -1.000000
vn 0.000000 0.000000 -1.000000
vn 0.000000 0.000000 -1.000000
vn 0.000000 0.000000 -1.000000
vn 0.000000 -1.000000 0.000000
vn 0.000000 -1.000000 0.000000
vn 0.000000 -1.000000 0.000000
vn 0.000000 -1.000000 0.000000
vn 0.000000 0.000000 -1.000000
vn 0.000000 0.000000 -1.000000
vn 0.000000 0.000000 -1.000000
vn 0.000000 0.000000 -1.000000
vn 1.000000 0.000000 -0.000009
vn 1.000000 0.000000 -0.000009
vn 1.000000 0.000000 -0.000009
vn 1.000000 0.000000 -0.000009
vn 0.000000 0.000000 1.000000
vn 0.000000 0.000000 1.000000
vn 0.000000 0.000000 1.000000
vn 0.000000 0.000000 1.000000
vn -1.000000 0.000000 0.000000
vn -1.000000 0.000000 0.000000
vn -1.000000 0.000000 0.000000
vn -1.000000 0.000000 0.000000
vn 0.000000 0.000000 -1.000000
vn 0.000000 0.000000 -1.000000
vn 0.000000 0.000000 -1.000000
vn 0.000000 0.000000 -1.000000
vn 1.000000 0.000000 0.000007
vn 1.000000 0.000000 0.000007
vn 1.000000 0.000000 0.000007
vn 1.000000 0.000000 0.000007
vn 0.000000 0.000000 1.000000
vn 0.000000 0.000000 1.000000
vn 0.000000 0.000000 1.000000
vn 0.000000 0.000000 1.000000
vn -1.000000 0.000000 0.000000
vn -1.000000 0.000000 0.000000
vn -1.000000 0.000000 0.000000
vn -1.000000 0.000000 0.000000
vn -1.000000 0.000000 0.000000
vn -1.000000 0.000000 0.000000
vn -1.000000 0.000000 0.000000
vn -1.000000 0.000000 0.000000
vn 0.000000 0.000000 -1.000000
vn 0.000000 0.000000 -1.000000
vn 0.000000 0.000000 -1.000000
vn 0.000000 0.000000 -1.000000
vn 1.000000 0.000000 0.000000
vn 1.000000 0.000000 0.000000
vn 1.000000 0.000000 0.000000
vn 1.000000 0.000000 0.000000
vn 0.000000 0.000000 1.000000
vn 0.000000 0.000000 1.000000
vn 0.000000 0.000000 1.000000
vn 0.000000 0.000000 1.000000
vn -1.000000 0.000000 0.000000
vn -1.000000 0.000000 0.000000
vn -1.000000 0.000000 0.000000
vn -1.000000 0.000000 0.000000
vn 0.000000 0.000000 -1.000000
vn 0.000000 0.000000 -1.000000
vn 0.000000 0.000000 -1.000000
vn 0.000000 0.000000 -1.000000
vn 1.000000 0.000000 0.000000
vn 1.000000 0.000000 0.000000
vn 1.000000 0.000000 0.000000
vn 1.000000 0.000000 0.000000
vn 0.000000 0.000000 1.000000
vn 0.000000 0.000000 1.000000
vn 0.000000 0.000000 1.000000
vn 0.000000 0.000000 1.000000
vn 0.000000 0.000000 1.000000
vn 0.000000 0.000000 1.000000
vn 0.000000 0.000000 1.000000
vn 0.000000 0.000000 1.000000
vn 0.000000 0.000000 1.000000
vn 0.000000 0.000000 -1.000000
vn 0.000000 0.000000 -1.000000
vn 0.000000 0.000000 -1.000000
vn 0.000000 0.000000 -1.000000
vn 0.000000 0.000000 1.000000
vn 0.000000 0.000000 1.000000
vn 0.000000 0.000000 1.000000
vn 0.000000 0.000000 1.000000
vn 0.000000 0.000000 -1.000000
vn 0.000000 0.000000 -1.000000
vn 0.000000 0.000000 -1.000000
vn 0.000000 0.000000 -1.000000
vn -1.000000 0.000000 0.000000
vn -1.000000 0.000000 0.000000
vn -1.000000 0.000000 0.000000
vn -1.000000 0.000000 0.000000
vn 0.000000 0.000000 1.000000
vn 0.000000 0.000000 1.000000
vn 0.000000 0.000000 1.000000
vn 0.000000 0.000000 1.000000
vn 1.000000 0.000000 0.000000
vn 1.000000 0.000000 0.000000
vn 1.000000 0.000000 0.000000
vn 1.000000 0.000000 0.000000
vn 0.000000 0.000000 -1.000000
vn 0.000000 0.000000 -1.000000
vn 0.000000 0.000000 -1.000000
vn 0.000000 0.000000 -1.000000
vn 0.000000 0.000000 1.000000
vn 0.000000 0.000000 1.000000
vn 0.000000 0.000000 1.000000
vn 0.000000 0.000000 1.000000
vn -0.000011 0.000000 1.000000
vn -0.000011 0.000000 1.000000
vn -0.000011 0.000000 1.000000
vn -0.000011 0.000000 1.000000
vn 0.000000 0.000000 1.000000
vn 0.000000 0.000000 1.000000
vn 0.000000 0.000000 1.000000
vn 0.000000 0.000000 1.000000
vn 0.000018 0.000000 1.000000
vn 0.000018 0.000000 1.000000
vn 0.000018 0.000000 1.000000
vn 0.000018 0.000000 1.000000
vn 0.000000 0.000000 1.000000
vn 0.000000 0.000000 1.000000
vn 0.000000 0.000000 1.000000
vn 0.000000 0.000000 1.000000
vn -0.000004 0.000000 1.000000
vn -0.000004 0.000000 1.000000
vn -0.000004 0.000000 1.000000
vn -0.000004 0.000000 1.000000
vn 0.000000 0.000000 1.000000
vn 0.000000 0.000000 1.000000
vn 0.000000 0.000000 1.000000
vn 0.000000 0.000000 1.000000
vn -0.000003 0.000000 1.000000
vn -0.000003 0.000000 1.000000
vn -0.000003 0.000000 1.000000
vn -0.000003 0.000000 1.000000
vn 0.000000 0.000000 1.000000
vn 0.000000 0.000000 1.000000
vn 0.000000 0.000000 1.000000
vn 0.000000 0.000000 1.000000
vn 0.999628 0.000000 0.027261
vn 0.999628 0.000000 0.027261
vn 0.999628 0.000000 0.027261
vn 0.999628 0.000000 0.027261
vn 0.000000 1.000000 0.000002
vn 0.000000 1.000000 0.000002
vn 0.000000 1.000000 0.000002
vn 0.000000 1.000000 0.000002
vn -0.999977 0.000000 0.006732
vn -0.999977 0.000000 0.006732
vn -0.999977 0.000000 0.006732
vn -0.999977 0.000000 0.006732
vn 0.000000 -1.000000 0.000000
vn 0.000000 -1.000000 0.000000
vn 0.000000 -1.000000 0.000000
vn 0.000000 -1.000000 0.000000
vn 0.000000 1.000000 0.000000
vn 0.000000 1.000000 0.000000
vn 0.000000 1.000000 0.000000
vn 0.000000 1.000000 0.000000
vn 0.000000 0.000000 1.000000
vn 0.000000 0.000000 1.000000
vn 0.000000 0.000000 1.000000
vn 0.000000 0.000000 1.000000
vn 0.000000 1.000000 0.000000
vn 0.000000 1.000000 0.000000
vn 0.000000 1.000000 0.000000
vn 0.000000 1.000000 0.000000
vn 0.000000 0.000000 -1.000000
vn 0.000000 0.000000 -1.000000
vn 0.000000 0.000000 -1.000000
vn 0.000000 0.000000 -1.000000
vn 0.000000 -1.000000 0.000000
vn 0.000000 -1.000000 0.000000
vn 0.000000 -1.000000 0.000000
vn 0.000000 -1.000000 0.000000
vn 1.000000 0.000000 0.000000
vn 1.000000 0.000000 0.000000
vn 1.000000 0.000000 0.000000
vn 1.000000 0.000000 0.000000
vn -1.000000 0.000000 0.000000
vn -1.000000 0.000000 0.000000
vn -1.000000 0.000000 0.000000
vn -1.000000 0.000000 0.000000
vn 0.000000 0.000000 1.000000
vn 0.000000 0.000000 1.000000
vn 0.000000 0.000000 1.000000
vn 0.000000 0.000000 1.000000
vn 0.000000 1.000000 0.000000
vn 0.000000 1.000000 0.000000
vn 0.000000 1.000000 0.000000
vn 0.000000 1.000000 0.000000
vn 0.000000 0.000000 -1.000000
vn 0.000000 0.000000 -1.000000
vn 0.000000 0.000000 -1.000000
vn 0.000000 0.000000 -1.000000
vn 0.000000 -1.000000 0.000000
vn 0.000000 -1.000000 0.000000
vn 0.000000 -1.000000 0.000000
vn 0.000000 -1.000000 0.000000
vn 1.000000 0.000000 0.000000
vn 1.000000 0.000000 0.000000
vn 1.000000 0.000000 0.000000
vn 1.000000 0.000000 0.000000
vn -1.000000 0.000000 0.000000
vn -1.000000 0.000000 0.000000
vn -1.000000 0.000000 0.000000
vn -1.000000 0.000000 0.000000
s off
g pasted__Tumba
usemtl initialShadingGroup
f 87/169/1 88/170/2 89/171/3 90/172/4
s 1
f 69/81/5 70/82/6 71/83/7 72/84/8
s 2
f 32/173/9 33/174/10 51/175/11 52/176/12
s 3
f 31/89/13 32/90/14 52/91/15 41/92/16
s 4
f 20/1/17 21/2/18 8/3/19 6/4/20
s 5
f 7/21/21 22/22/22 17/23/23 5/24/24
s 6
f 38/193/25 39/194/26 45/195/27 46/196/28
s 7
f 19/9/29 20/1/30 6/4/31 11/10/32
s 8
f 50/179/33 51/175/34 33/174/35 34/180/36
s 9
f 5/24/37 17/23/38 18/29/39 12/30/40
s 10
f 39/102/41 40/103/42 78/104/43 44/105/44 45/106/45
s off
f 4/12/46 10/18/47 15/19/48 14/20/49
s 11
f 46/111/50 47/112/51 37/113/52 38/114/53
s off
f 9/38/54 3/32/55 13/39/56 16/40/57
s 9
f 18/29/39 17/23/38 23/28/58 24/33/59
s 12
f 91/124/60 92/119/61 48/118/62 49/125/63
s 7
f 25/13/64 26/5/65 20/1/30 19/9/29
s 4
f 26/5/66 27/6/67 21/2/18 20/1/17
s 3
f 30/93/68 31/89/13 41/92/16 42/94/69
s 5
f 17/23/23 22/22/22 28/27/70 23/28/71
s 9
f 24/33/59 23/28/58 3/32/72 9/38/73
s 12
f 36/117/74 37/113/75 47/112/76 48/118/62 92/119/61
s 7
f 4/12/77 26/5/65 25/13/64 10/18/78
s 4
f 2/11/79 27/6/67 26/5/66 4/12/80
s 3
f 29/99/81 30/93/68 42/94/69 43/100/82 77/101/83
s 5
f 23/28/71 28/27/70 1/31/84 3/32/85
s off
f 54/129/86 53/130/87 55/131/88 56/132/89
s 3
f 22/95/90 31/89/13 30/93/68 28/96/91
s off
f 57/133/92 58/134/93 59/135/94 60/136/95
s 2
f 5/177/96 33/174/10 32/173/9 7/178/97
s 8
f 34/180/36 33/174/35 5/177/98 12/183/99
s 1
f 73/85/100 70/82/6 69/81/5 74/86/101
s 12
f 24/123/102 36/117/74 35/126/103 18/128/104
f 9/120/105 37/113/75 36/117/74 24/123/102
s 11
f 38/114/53 37/113/52 9/120/106 16/121/107
s 6
f 13/197/108 39/194/26 38/193/25 16/198/109
s 10
f 3/107/110 40/103/42 39/102/41 13/108/111
s off
f 1/201/112 29/202/113 40/203/114 3/204/115
s 3
f 42/94/69 41/92/16 21/97/116 27/98/117
s off
f 62/137/118 61/138/119 63/139/120 64/140/121
f 44/218/122 43/215/123 2/219/124 4/220/125
s 10
f 45/106/45 44/105/44 4/109/126 14/110/127
s 6
f 46/196/28 45/195/27 14/199/128 15/200/129
s 11
f 10/115/130 47/112/51 46/111/50 15/116/131
s 12
f 48/118/62 47/112/76 10/115/132 25/122/133
f 49/125/63 48/118/62 25/122/133 19/127/134
s 1
f 72/84/8 71/83/7 75/87/135 76/88/136
s 8
f 6/181/137 51/175/34 50/179/33 11/186/138
s 2
f 52/176/12 51/175/11 6/181/139 8/182/140
s off
f 66/141/141 65/142/142 67/143/143 68/144/144
f 28/223/145 30/224/146 53/225/147 54/226/148
f 30/41/149 29/42/150 55/43/151 53/44/152
f 29/202/153 1/201/154 56/205/155 55/206/156
f 1/31/157 28/27/158 54/36/159 56/37/160
f 7/178/161 32/173/162 58/184/163 57/185/164
f 32/45/165 31/46/166 59/47/167 58/48/168
f 31/227/169 22/228/170 60/229/171 59/230/172
f 22/22/173 7/21/174 57/25/175 60/26/176
f 43/49/177 42/50/178 61/51/179 62/52/180
f 42/231/181 27/232/182 63/233/183 61/234/184
f 27/6/185 2/11/186 64/16/187 63/17/188
f 2/219/189 43/215/190 62/221/191 64/222/192
f 41/53/193 52/54/194 65/55/195 66/56/196
f 52/176/197 8/182/198 67/189/199 65/190/200
f 8/3/201 21/2/202 68/7/203 67/8/204
f 21/235/205 41/236/206 66/237/207 68/238/208
f 35/239/209 91/240/210 49/241/211 71/242/212 70/243/213
f 50/179/214 34/180/215 69/187/216 72/188/217
f 18/246/218 35/239/219 70/243/220 73/247/221
f 34/180/222 12/183/223 74/191/224 69/187/225
f 12/30/226 18/29/227 73/34/228 74/35/229
f 49/241/230 19/244/231 75/245/232 71/242/233
f 19/9/234 11/10/235 76/14/236 75/15/237
f 11/186/238 50/179/239 72/188/240 76/192/241
f 80/214/242 79/213/243 81/216/244 82/217/245
f 78/211/246 77/209/247 79/213/248 80/214/249
f 77/209/250 43/215/251 81/216/252 79/213/253
f 43/215/254 44/218/255 82/217/256 81/216/257
f 44/218/258 78/211/259 80/214/260 82/217/261
f 40/203/262 29/202/263 84/207/264 83/208/265
f 29/202/266 77/209/267 85/210/268 84/207/269
f 77/209/270 78/211/271 86/212/272 85/210/273
f 78/211/274 40/203/275 83/208/276 86/212/277
f 83/57/278 84/58/279 88/59/280 87/60/281
f 84/145/282 85/146/283 89/147/284 88/148/285
f 85/61/286 86/62/287 90/63/288 89/64/289
f 86/149/290 83/150/291 87/151/292 90/152/293
f 91/124/294 35/126/295 36/117/296 92/119/297
f 93/248/298 94/249/299 96/250/300 95/251/301
f 95/153/302 96/154/303 98/155/304 97/156/305
f 97/252/306 98/253/307 100/254/308 99/255/309
f 99/157/310 100/158/311 94/159/312 93/160/313
f 94/65/314 100/66/315 98/67/316 96/68/317
f 99/69/318 93/70/319 95/71/320 97/72/321
f 101/256/322 102/257/323 104/258/324 103/259/325
f 103/161/326 104/162/327 106/163/328 105/164/329
f 105/260/330 106/261/331 108/262/332 107/263/333
f 107/165/334 108/166/335 102/167/336 101/168/337
f 102/73/338 108/74/339 106/75/340 104/76/341
f 107/77/342 101/78/343 103/79/344 105/80/345
