# This file uses centimeters as units for non-parametric coordinates.

mtllib Table3.mtl
g default
v 0.278721 3.763924 -2.622758
v 0.665878 3.763924 -6.265895
v 1.093256 3.763924 -5.982757
v 0.479268 3.763924 -2.622758
v 0.665878 4.046655 -6.265895
v 0.223626 4.046655 -6.409064
v 0.000000 4.046655 0.000000
v -2.472454 4.046655 -3.620481
v -2.696078 4.046655 -2.788589
v -1.120336 3.763924 -0.742223
v -2.859476 3.763924 -1.894405
v -2.696078 3.763924 -2.788589
v -1.120336 3.763924 -1.158779
v 1.865745 3.763924 -5.024856
v 1.496212 3.763924 -5.565974
v 1.496212 4.046655 -5.565974
v 1.865745 4.046655 -5.024856
v 1.093256 4.046655 -5.982757
v -2.859476 4.046655 -1.894405
v -2.958998 3.763924 -0.957902
v -2.992422 3.763924 -0.000002
v -2.992422 4.046655 -0.000002
v -2.958998 4.046655 -0.957902
v 0.705034 3.763924 -2.622758
v -1.120336 3.763924 -0.362681
v 0.973838 3.763924 -2.622758
v 2.193601 3.763924 -4.371491
v 2.193601 4.046655 -4.371491
v -2.958999 4.046655 0.957898
v -1.120336 3.763924 -0.000001
v -2.958999 3.763924 0.957898
v 2.472455 4.046655 -3.620474
v -2.859477 4.046655 1.894401
v -1.120336 1.764518 -3.258523
v 1.120336 1.764518 -3.258523
v 1.120336 1.764518 3.196418
v -1.120336 1.764518 3.196418
v 2.696078 4.046655 -2.788582
v -1.120336 3.763924 0.362679
v -2.696079 4.046655 2.788585
v 2.472455 3.763924 -3.620474
v -2.859477 3.763924 1.894401
v 2.859476 4.046655 -1.894398
v -2.472456 4.046655 3.620478
v 1.120336 3.763924 -2.232649
v 1.120336 3.763924 -1.640535
v -1.120336 3.763924 0.742222
v 2.958997 4.046655 -0.957896
v 1.120336 3.763924 -2.622758
v -2.193601 4.046655 4.371495
v 2.992423 4.046655 0.000000
v -1.865745 4.046655 5.024860
v 2.696078 3.763924 -2.788582
v 1.120336 3.763924 -1.158775
v -1.120336 3.763924 1.158776
v -2.696079 3.763924 2.788585
v 2.959000 4.046655 0.957901
v -1.496212 4.046655 5.565978
v 2.859478 4.046655 1.894404
v -1.093255 4.046655 5.982761
v 2.859476 3.763924 -1.894398
v 1.120336 3.763924 -0.742221
v 2.696080 4.046655 2.788589
v -1.120336 3.763924 1.640536
v -2.472456 3.763924 3.620478
v -0.665877 4.046655 6.265899
v 2.472456 4.046655 3.620481
v -0.223625 4.046655 6.409068
v 2.193601 4.046655 4.371498
v 0.223623 4.046655 6.409068
v 2.958997 3.763924 -0.957896
v 1.120336 3.763924 -0.362679
v 1.865745 4.046655 5.024863
v 0.665876 4.046655 6.265901
v 1.496211 4.046655 5.565980
v 1.093254 4.046655 5.982763
v -1.120336 3.763924 2.232650
v -2.193601 3.763924 4.371495
v 2.992423 3.763924 0.000000
v 1.120336 3.763924 0.000000
v 2.959000 3.763924 0.957901
v 1.120336 3.763924 0.362680
v -0.703236 3.763924 2.616070
v -1.496212 3.763924 5.565978
v -1.865745 3.763924 5.024860
v -0.971355 3.763924 2.616070
v 2.859478 3.763924 1.894404
v 1.120336 3.763924 0.742222
v -0.478046 3.763924 2.616070
v -1.093255 3.763924 5.982761
v 2.696080 3.763924 2.788589
v 1.120336 3.763924 1.158777
v -0.278010 3.763924 2.616070
v -0.665877 3.763924 6.265899
v 2.472456 3.763924 3.620481
v 1.120336 3.763924 1.640537
v -0.091280 3.763924 2.616070
v -0.223625 3.763924 6.409068
v 0.091279 3.763924 2.616070
v 0.223623 3.763924 6.409068
v 2.193601 3.763924 4.371498
v 1.120336 3.763924 2.232652
v 0.278009 3.763924 2.616070
v 0.665876 3.763924 6.265901
v 0.478045 3.763924 2.616070
v 1.093254 3.763924 5.982763
v -1.120336 3.763924 2.616070
v 0.703235 3.763924 2.616070
v 1.496211 3.763924 5.565980
v 0.971354 3.763924 2.616070
v 1.865745 3.763924 5.024863
v -1.120336 3.763924 -2.622758
v -0.973836 3.763924 -2.622758
v -0.705032 3.763924 -2.622758
v -0.479267 3.763924 -2.622758
v -0.278720 3.763924 -2.622758
v -0.091512 3.763924 -2.622758
v 0.091513 3.763924 -2.622758
v 1.120336 3.763924 2.616070
v -1.120336 3.763924 -1.640539
v -1.120336 3.763924 -2.232654
v -2.193599 4.046655 -4.371498
v -0.223622 4.046655 -6.409065
v -1.865743 4.046655 -5.024862
v -0.665875 4.046655 -6.265898
v -1.496209 4.046655 -5.565979
v -1.093253 4.046655 -5.982760
v -2.472454 3.763924 -3.620481
v 0.223626 3.763924 -6.409064
v -0.223622 3.763924 -6.409065
v -2.193599 3.763924 -4.371498
v -0.665875 3.763924 -6.265898
v -1.093253 3.763924 -5.982760
v -1.496209 3.763924 -5.565979
v -1.865743 3.763924 -5.024862
vt 0.625938 0.397953
vt 0.625938 0.355510
vt 0.638465 0.355510
vt 0.638465 0.397953
vt 0.625938 0.313067
vt 0.638465 0.313067
vt 0.625938 0.439448
vt 0.638465 0.439448
vt 0.625938 0.271573
vt 0.638465 0.271573
vt 0.625938 0.479068
vt 0.638465 0.479068
vt 0.625938 0.231953
vt 0.638465 0.231953
vt 0.625938 0.515927
vt 0.638465 0.515927
vt 0.625938 0.195093
vt 0.638465 0.195093
vt 0.625938 0.549204
vt 0.638465 0.549204
vt 0.625938 0.161817
vt 0.638465 0.161817
vt 0.625938 0.578153
vt 0.638465 0.578153
vt 0.625938 0.132867
vt 0.638465 0.132867
vt 0.625938 0.602129
vt 0.638465 0.602129
vt 0.625938 0.108891
vt 0.638465 0.108891
vt 0.625938 0.620596
vt 0.638465 0.620596
vt 0.625938 0.090424
vt 0.638465 0.090424
vt 0.625938 0.633141
vt 0.638465 0.633141
vt 0.625938 0.077879
vt 0.638465 0.077879
vt 0.608520 0.161817
vt 0.608520 0.132867
vt 0.621048 0.132867
vt 0.621048 0.161817
vt 0.608520 0.108891
vt 0.621048 0.108891
vt 0.608520 0.195093
vt 0.621048 0.195093
vt 0.608520 0.090424
vt 0.621048 0.090424
vt 0.608520 0.231953
vt 0.621048 0.231953
vt 0.608520 0.077879
vt 0.621048 0.077879
vt 0.608520 0.271572
vt 0.621048 0.271572
vt 0.608520 0.313067
vt 0.621048 0.313067
vt 0.608520 0.355510
vt 0.621048 0.355510
vt 0.608520 0.397953
vt 0.621048 0.397953
vt 0.608520 0.439448
vt 0.621048 0.439448
vt 0.608520 0.479067
vt 0.621048 0.479067
vt 0.608520 0.515927
vt 0.621048 0.515927
vt 0.608520 0.549203
vt 0.621048 0.549203
vt 0.608520 0.578153
vt 0.621048 0.578153
vt 0.608520 0.602129
vt 0.621048 0.602129
vt 0.608520 0.620596
vt 0.621048 0.620596
vt 0.608520 0.633141
vt 0.621048 0.633141
vt 0.721615 0.652866
vt 0.721615 0.366859
vt 0.810205 0.392573
vt 0.810205 0.409562
vt 0.810205 0.435797
vt 0.810205 0.457143
vt 0.810205 0.475600
vt 0.810205 0.492417
vt 0.810205 0.508487
vt 0.810205 0.524556
vt 0.810205 0.541373
vt 0.810205 0.559830
vt 0.810205 0.581176
vt 0.810205 0.607412
vt 0.810205 0.624696
vt 0.628456 0.922121
vt 0.628456 0.636114
vt 0.717046 0.664284
vt 0.717046 0.681569
vt 0.717046 0.707804
vt 0.717046 0.729150
vt 0.717046 0.747607
vt 0.717046 0.764424
vt 0.717046 0.780493
vt 0.717046 0.796563
vt 0.717046 0.813380
vt 0.717046 0.831837
vt 0.717046 0.853183
vt 0.717046 0.879418
vt 0.717046 0.896407
vt 0.213366 0.245644
vt 0.230520 0.084223
vt 0.249456 0.096768
vt 0.222252 0.245644
vt 0.205071 0.245644
vt 0.210924 0.077879
vt 0.267311 0.115235
vt 0.232255 0.245644
vt 0.196961 0.245644
vt 0.191108 0.077879
vt 0.283684 0.139211
vt 0.244165 0.245644
vt 0.188666 0.245644
vt 0.171512 0.084222
vt 0.298211 0.168160
vt 0.250656 0.262929
vt 0.250656 0.245644
vt 0.179781 0.245644
vt 0.152576 0.096768
vt 0.310566 0.201437
vt 0.250656 0.289164
vt 0.169777 0.245644
vt 0.134722 0.115235
vt 0.320475 0.238296
vt 0.250656 0.310510
vt 0.157867 0.245644
vt 0.118348 0.139211
vt 0.327714 0.277916
vt 0.250656 0.328967
vt 0.103821 0.168160
vt 0.151376 0.245644
vt 0.151376 0.262929
vt 0.332124 0.319411
vt 0.250656 0.345784
vt 0.151376 0.289164
vt 0.091466 0.201436
vt 0.333605 0.361854
vt 0.250656 0.361854
vt 0.151376 0.310510
vt 0.081557 0.238296
vt 0.332124 0.404297
vt 0.250656 0.377923
vt 0.151376 0.328967
vt 0.074318 0.277916
vt 0.327715 0.445791
vt 0.250656 0.394740
vt 0.151376 0.345784
vt 0.069908 0.319411
vt 0.320475 0.485411
vt 0.250656 0.413197
vt 0.151376 0.361854
vt 0.068427 0.361853
vt 0.310566 0.522271
vt 0.250656 0.434543
vt 0.151376 0.377923
vt 0.069908 0.404296
vt 0.298211 0.555547
vt 0.250656 0.460778
vt 0.151376 0.394740
vt 0.074318 0.445791
vt 0.283684 0.584497
vt 0.244055 0.477767
vt 0.250656 0.477767
vt 0.151376 0.413197
vt 0.081557 0.485411
vt 0.267311 0.608472
vt 0.232175 0.477767
vt 0.151376 0.434543
vt 0.091466 0.522271
vt 0.249456 0.626939
vt 0.222197 0.477767
vt 0.151376 0.460778
vt 0.103821 0.555547
vt 0.230520 0.639485
vt 0.213334 0.477767
vt 0.118348 0.584496
vt 0.151376 0.477767
vt 0.157977 0.477767
vt 0.210924 0.645828
vt 0.205060 0.477767
vt 0.169857 0.477767
vt 0.134721 0.608472
vt 0.191108 0.645828
vt 0.196972 0.477767
vt 0.179835 0.477767
vt 0.152576 0.626939
vt 0.171512 0.639485
vt 0.188698 0.477767
vt 0.500639 0.639485
vt 0.481044 0.645828
vt 0.471135 0.361854
vt 0.461227 0.645828
vt 0.519576 0.626939
vt 0.441632 0.639485
vt 0.537430 0.608472
vt 0.422695 0.626939
vt 0.553803 0.584496
vt 0.404841 0.608473
vt 0.568330 0.555547
vt 0.388467 0.584497
vt 0.580685 0.522271
vt 0.373941 0.555547
vt 0.590594 0.485411
vt 0.361585 0.522271
vt 0.597834 0.445791
vt 0.351677 0.485411
vt 0.602243 0.404296
vt 0.344437 0.445791
vt 0.603724 0.361854
vt 0.340027 0.404297
vt 0.602243 0.319411
vt 0.338546 0.361854
vt 0.597834 0.277916
vt 0.340027 0.319411
vt 0.590594 0.238296
vt 0.344437 0.277916
vt 0.580685 0.201436
vt 0.351677 0.238296
vt 0.568330 0.168160
vt 0.361585 0.201437
vt 0.553803 0.139211
vt 0.373941 0.168160
vt 0.537430 0.115235
vt 0.388467 0.139211
vt 0.519576 0.096768
vt 0.404841 0.115235
vt 0.500639 0.084223
vt 0.422695 0.096768
vt 0.481044 0.077879
vt 0.441631 0.084223
vt 0.461227 0.077879
vt 0.643356 0.077879
vt 0.742636 0.077879
vt 0.742636 0.363886
vt 0.643356 0.363886
vt 0.535296 0.648801
vt 0.623887 0.648801
vt 0.623887 0.748081
vt 0.535296 0.748081
vt 0.535296 0.741590
vt 0.535296 0.729680
vt 0.535296 0.719676
vt 0.535296 0.710791
vt 0.535296 0.702496
vt 0.535296 0.694386
vt 0.535296 0.686091
vt 0.535296 0.677206
vt 0.535296 0.667202
vt 0.535296 0.655292
vt 0.425040 0.707809
vt 0.425040 0.688213
vt 0.437568 0.688213
vt 0.437568 0.707809
vt 0.425040 0.668396
vt 0.437568 0.668396
vt 0.425040 0.648801
vt 0.437568 0.648801
vt 0.442137 0.748081
vt 0.442137 0.648801
vt 0.530727 0.648801
vt 0.530727 0.655402
vt 0.530727 0.667282
vt 0.530727 0.677260
vt 0.530727 0.686123
vt 0.530727 0.694397
vt 0.530727 0.702486
vt 0.530727 0.710759
vt 0.530727 0.719622
vt 0.530727 0.729600
vt 0.530727 0.741480
vt 0.530727 0.748081
vt 0.420471 0.648801
vt 0.420471 0.668396
vt 0.407944 0.668396
vt 0.407944 0.648801
vt 0.420471 0.688213
vt 0.407944 0.688213
vt 0.420471 0.707808
vt 0.407944 0.707808
vn 0.000000 -1.000000 -0.000000
vn 0.055419 -0.992043 -0.113050
vn 0.090758 -0.990036 -0.107668
vn 0.000000 -1.000000 -0.000000
vn 0.045785 0.994576 -0.093398
vn 0.015609 0.995164 -0.096976
vn 0.000000 1.000000 -0.000000
vn -0.158644 0.986051 -0.050360
vn -0.172067 0.984329 -0.038581
vn 0.000000 -1.000000 -0.000000
vn -0.214387 -0.976263 -0.030790
vn -0.208360 -0.976936 -0.046719
vn 0.000000 -1.000000 0.000000
vn 0.162679 -0.982097 -0.094979
vn 0.126020 -0.986808 -0.101628
vn 0.099055 0.991871 -0.079882
vn 0.121839 0.989998 -0.071135
vn 0.073677 0.993445 -0.087404
vn -0.181830 0.982983 -0.026114
vn -0.218320 -0.975757 -0.015321
vn -0.219674 -0.975573 -0.000000
vn -0.189745 0.981833 -0.000000
vn -0.187758 0.982127 -0.013176
vn 0.000000 -1.000000 -0.000000
vn 0.000000 -1.000000 -0.000000
vn 0.000000 -1.000000 -0.000000
vn 0.192657 -0.977730 -0.083230
vn 0.141804 0.987997 -0.061261
vn -0.187758 0.982127 0.013176
vn 0.000000 -1.000000 0.000000
vn -0.218320 -0.975757 0.015321
vn 0.158645 0.986051 -0.050360
vn -0.181830 0.982983 0.026114
vn 0.000000 -1.000000 0.000000
vn 0.000000 -1.000000 0.000000
vn 0.000000 -1.000000 0.000000
vn 0.000000 -1.000000 0.000000
vn 0.172067 0.984329 -0.038581
vn 0.000000 -1.000000 0.000000
vn -0.172067 0.984330 0.038581
vn 0.201412 -0.977418 -0.063936
vn -0.214387 -0.976263 0.030790
vn 0.181830 0.982983 -0.026114
vn -0.158644 0.986051 0.050360
vn 0.000000 -1.000000 -0.000000
vn 0.000000 -1.000000 -0.000000
vn 0.000000 -1.000000 0.000000
vn 0.187757 0.982127 -0.013177
vn 0.000000 -1.000000 0.000000
vn -0.141804 0.987997 0.061261
vn 0.189745 0.981833 -0.000000
vn -0.121839 0.989998 0.071135
vn 0.208361 -0.976936 -0.046719
vn 0.000000 -1.000000 0.000000
vn 0.000000 -1.000000 0.000000
vn -0.208360 -0.976936 0.046719
vn 0.187757 0.982127 0.013176
vn -0.099055 0.991871 0.079882
vn 0.181830 0.982983 0.026114
vn -0.073677 0.993445 0.087404
vn 0.214387 -0.976263 -0.030790
vn 0.000000 -1.000000 0.000000
vn 0.172067 0.984329 0.038581
vn 0.000000 -1.000000 0.000000
vn -0.201411 -0.977418 0.063936
vn -0.045785 0.994576 0.093398
vn 0.158644 0.986051 0.050360
vn -0.015609 0.995164 0.096976
vn 0.141803 0.987997 0.061261
vn 0.015608 0.995164 0.096976
vn 0.218320 -0.975757 -0.015321
vn 0.000000 -1.000000 0.000000
vn 0.121839 0.989998 0.071135
vn 0.045785 0.994576 0.093398
vn 0.099054 0.991871 0.079882
vn 0.073677 0.993445 0.087404
vn 0.000000 -1.000000 -0.000000
vn -0.192530 -0.977760 0.083175
vn 0.219674 -0.975573 -0.000000
vn 0.000000 -1.000000 0.000000
vn 0.218320 -0.975757 0.015321
vn 0.000000 -1.000000 0.000000
vn 0.000000 -1.000000 -0.000000
vn -0.125846 -0.986845 0.101487
vn -0.162447 -0.982149 0.094843
vn 0.000000 -1.000000 -0.000000
vn 0.214387 -0.976263 0.030790
vn 0.000000 -1.000000 -0.000000
vn 0.000000 -1.000000 0.000000
vn -0.090651 -0.990059 0.107541
vn 0.208360 -0.976936 0.046719
vn 0.000000 -1.000000 -0.000000
vn 0.000000 -1.000000 0.000000
vn -0.055359 -0.992060 0.112929
vn 0.201411 -0.977418 0.063936
vn 0.000000 -1.000000 0.000000
vn 0.000000 -1.000000 0.000000
vn -0.018728 -0.993031 0.116357
vn 0.000000 -1.000000 -0.000000
vn 0.018728 -0.993031 0.116357
vn 0.192529 -0.977760 0.083175
vn 0.000000 -1.000000 0.000000
vn 0.000000 -1.000000 -0.000000
vn 0.055359 -0.992060 0.112929
vn 0.000000 -1.000000 0.000000
vn 0.090650 -0.990059 0.107541
vn 0.000000 -1.000000 0.000000
vn 0.000000 -1.000000 -0.000000
vn 0.125846 -0.986845 0.101488
vn 0.000000 -1.000000 -0.000000
vn 0.162447 -0.982149 0.094843
vn 0.000000 0.303027 -0.952982
vn 0.000000 0.303027 -0.952982
vn 0.000000 0.303027 -0.952982
vn 0.000000 0.303027 -0.952982
vn 0.000000 0.303027 -0.952982
vn 0.000000 0.303027 -0.952982
vn 0.000000 0.303027 -0.952982
vn 0.000000 0.303027 -0.952982
vn 0.000000 0.303027 -0.952982
vn 0.000000 0.303027 -0.952982
vn 0.000000 0.303027 -0.952982
vn 0.000000 0.303027 -0.952982
vn 0.000000 0.303027 -0.952982
vn 0.000000 0.303027 -0.952982
vn 0.000000 -1.000000 -0.000000
vn -1.000000 -0.000000 0.000000
vn -1.000000 -0.000000 0.000000
vn -1.000000 -0.000000 0.000000
vn -1.000000 -0.000000 0.000000
vn -1.000000 -0.000000 0.000000
vn -1.000000 -0.000000 0.000000
vn -1.000000 -0.000000 0.000000
vn -1.000000 -0.000000 0.000000
vn -1.000000 -0.000000 0.000000
vn -1.000000 -0.000000 0.000000
vn -1.000000 -0.000000 0.000000
vn -1.000000 -0.000000 0.000000
vn -1.000000 -0.000000 0.000000
vn -1.000000 -0.000000 0.000000
vn -1.000000 -0.000000 0.000000
vn 1.000000 -0.000000 0.000000
vn 1.000000 -0.000000 0.000000
vn 1.000000 -0.000000 0.000000
vn 1.000000 -0.000000 0.000000
vn 1.000000 -0.000000 0.000000
vn 1.000000 -0.000000 0.000000
vn 1.000000 -0.000000 0.000000
vn 1.000000 -0.000000 0.000000
vn 1.000000 -0.000000 0.000000
vn 1.000000 -0.000000 0.000000
vn 1.000000 -0.000000 0.000000
vn 1.000000 -0.000000 0.000000
vn 1.000000 -0.000000 0.000000
vn 1.000000 -0.000000 0.000000
vn 1.000000 -0.000000 0.000000
vn 0.000000 0.278755 0.960362
vn 0.000000 0.278755 0.960362
vn 0.000000 0.278755 0.960362
vn 0.000000 0.278755 0.960362
vn 0.000000 0.278755 0.960362
vn 0.000000 0.278755 0.960362
vn 0.000000 0.278755 0.960362
vn 0.000000 0.278755 0.960362
vn 0.000000 0.278755 0.960362
vn 0.000000 0.278755 0.960362
vn 0.000000 0.278755 0.960362
vn 0.000000 0.278755 0.960362
vn 0.000000 0.278755 0.960362
vn 0.000000 0.278755 0.960362
vn -0.141803 0.987997 -0.061261
vn -0.015608 0.995164 -0.096976
vn -0.121839 0.989998 -0.071135
vn -0.045785 0.994576 -0.093398
vn -0.099054 0.991871 -0.079882
vn -0.073676 0.993445 -0.087405
vn -0.201412 -0.977418 -0.063936
vn 0.000000 -1.000000 0.000000
vn 0.000000 -1.000000 -0.000000
vn 0.018747 -0.993017 -0.116476
vn 0.000000 -1.000000 -0.000000
vn -0.018747 -0.993017 -0.116476
vn -0.192657 -0.977730 -0.083230
vn 0.000000 -1.000000 0.000000
vn 0.000000 -1.000000 0.000000
vn -0.055418 -0.992043 -0.113050
vn 0.000000 -1.000000 0.000000
vn -0.090757 -0.990036 -0.107668
vn 0.000000 -1.000000 -0.000000
vn -0.126020 -0.986808 -0.101628
vn 0.000000 -1.000000 -0.000000
vn -0.162678 -0.982097 -0.094979
vn 0.000000 -1.000000 -0.000000
s 1
g polySurface1
usemtl initialShadingGroup
f 1/107/1 2/108/2 3/109/3 4/110/4
f 5/195/5 6/196/6 7/197/7
f 8/210/8 9/212/9 7/197/7
f 10/149/10 11/150/11 12/146/12 13/145/13
f 14/40/14 15/43/15 16/44/16 17/41/17
f 18/199/18 5/195/5 7/197/7
f 9/212/9 19/214/19 7/197/7
f 20/1/20 21/2/21 22/3/22 23/4/23
f 4/110/4 3/109/3 15/113/15 24/114/24
f 16/201/16 18/199/18 7/197/7
f 19/214/19 23/216/23 7/197/7
f 25/153/25 20/154/20 11/150/11 10/149/10
f 17/203/17 16/201/16 7/197/7
f 23/216/23 22/218/22 7/197/7
f 24/114/24 15/113/15 14/117/14 26/118/26
f 27/39/27 14/40/14 17/41/17 28/42/28
f 28/205/28 17/203/17 7/197/7
f 22/218/22 29/220/29 7/197/7
f 30/157/30 21/158/21 20/154/20 25/153/25
f 21/2/21 31/5/31 29/6/29 22/3/22
f 32/207/32 28/205/28 7/197/7
f 29/220/29 33/222/33 7/197/7
s off
f 34/238/34 35/239/35 36/240/36 37/241/37
s 1
f 38/209/38 32/207/32 7/197/7
f 39/161/39 31/162/31 21/158/21 30/157/30
f 33/222/33 40/224/40 7/197/7
f 41/45/41 27/39/27 28/42/28 32/46/32
f 31/5/31 42/9/42 33/10/33 29/6/29
f 43/211/43 38/209/38 7/197/7
f 40/224/40 44/226/44 7/197/7
f 45/122/45 27/121/27 41/126/41 46/127/46
f 47/165/47 42/166/42 31/162/31 39/161/39
f 48/213/48 43/211/43 7/197/7
f 14/117/14 27/121/27 45/122/45 49/123/49 26/118/26
f 44/226/44 50/228/50 7/197/7
f 51/215/51 48/213/48 7/197/7
f 50/228/50 52/230/52 7/197/7
f 53/49/53 41/45/41 32/46/32 38/50/38
f 46/127/46 41/126/41 53/130/53 54/131/54
f 55/170/55 56/171/56 42/166/42 47/165/47
f 42/9/42 56/13/56 40/14/40 33/10/33
f 57/217/57 51/215/51 7/197/7
f 52/230/52 58/232/58 7/197/7
f 59/219/59 57/217/57 7/197/7
f 58/232/58 60/234/60 7/197/7
f 54/131/54 53/130/53 61/134/61 62/135/62
f 63/221/63 59/219/59 7/197/7
f 64/174/64 65/175/65 56/171/56 55/170/55
f 60/234/60 66/236/66 7/197/7
f 61/53/61 53/49/53 38/50/38 43/54/43
f 67/223/67 63/221/63 7/197/7
f 66/236/66 68/237/68 7/197/7
f 56/13/56 65/17/65 44/18/44 40/14/40
f 69/225/69 67/223/67 7/197/7
f 68/237/68 70/235/70 7/197/7
f 62/135/62 61/134/61 71/139/71 72/140/72
f 73/227/73 69/225/69 7/197/7
f 70/235/70 74/233/74 7/197/7
f 75/229/75 73/227/73 7/197/7
f 74/233/74 76/231/76 7/197/7
f 76/231/76 75/229/75 7/197/7
f 77/178/77 78/179/78 65/175/65 64/174/64
f 71/55/71 61/53/61 43/54/43 48/56/48
f 72/140/72 71/139/71 79/143/79 80/144/80
f 65/17/65 78/21/78 50/22/50 44/18/44
f 80/144/80 79/143/79 81/147/81 82/148/82
f 79/57/79 71/55/71 48/56/48 51/58/51
f 83/187/83 84/188/84 85/182/85 86/184/86
f 78/21/78 85/25/85 52/26/52 50/22/50
f 82/148/82 81/147/81 87/151/87 88/152/88
f 89/191/89 90/192/90 84/188/84 83/187/83
f 88/152/88 87/151/87 91/155/91 92/156/92
f 81/59/81 79/57/79 51/58/51 57/60/57
f 93/194/93 94/193/94 90/192/90 89/191/89
f 85/25/85 84/29/84 58/30/58 52/26/52
f 92/156/92 91/155/91 95/159/95 96/160/96
f 97/190/97 98/189/98 94/193/94 93/194/93
f 87/61/87 81/59/81 57/60/57 59/62/59
f 99/186/99 100/185/100 98/189/98 97/190/97
f 84/29/84 90/33/90 60/34/60 58/30/58
f 96/160/96 95/159/95 101/163/101 102/164/102
f 103/181/103 104/180/104 100/185/100 99/186/99
f 105/177/105 106/176/106 104/180/104 103/181/103
f 85/182/85 78/179/78 77/178/77 107/183/107 86/184/86
f 108/173/108 109/172/109 106/176/106 105/177/105
f 110/168/110 111/167/111 109/172/109 108/173/108
f 91/63/91 87/61/87 59/62/59 63/64/63
f 90/33/90 94/37/94 66/38/66 60/34/60
s off
f 49/242/112 35/243/113 34/244/114 112/245/115 113/246/116 114/247/117 115/248/118 116/249/119 117/250/120 118/251/121 1/252/122 4/253/123 24/254/124 26/255/125
s 1
f 95/65/95 91/63/91 63/64/63 67/66/67
f 94/256/94 98/257/98 68/258/68 66/259/66
f 101/67/101 95/65/95 67/66/67 69/68/69
f 98/257/98 100/260/100 70/261/70 68/258/68
f 111/69/111 101/67/101 69/68/69 73/70/73
f 100/260/100 104/262/104 74/263/74 70/261/70
f 109/71/109 111/69/111 73/70/73 75/72/75
f 104/75/104 106/73/106 76/74/76 74/76/74
f 106/73/106 109/71/109 75/72/75 76/74/76
f 101/163/101 111/167/111 110/168/110 119/169/126 102/164/102
s off
f 34/77/127 37/78/128 107/79/129 77/80/130 64/81/131 55/82/132 47/83/133 39/84/134 30/85/135 25/86/136 10/87/137 13/88/138 120/89/139 121/90/140 112/91/141
f 36/92/142 35/93/143 49/94/144 45/95/145 46/96/146 54/97/147 62/98/148 72/99/149 80/100/150 82/101/151 88/102/152 92/103/153 96/104/154 102/105/155 119/106/156
f 37/264/157 36/265/158 119/266/159 110/267/160 108/268/161 105/269/162 103/270/163 99/271/164 97/272/165 93/273/166 89/274/167 83/275/168 86/276/169 107/277/170
s 1
f 122/208/171 8/210/8 7/197/7
f 6/196/6 123/198/172 7/197/7
f 124/206/173 122/208/171 7/197/7
f 123/198/172 125/200/174 7/197/7
f 126/204/175 124/206/173 7/197/7
f 125/200/174 127/202/176 7/197/7
f 127/202/176 126/204/175 7/197/7
f 13/145/13 12/146/12 128/142/177 120/141/178
f 118/111/179 129/112/180 2/108/2 1/107/1
f 11/7/11 20/1/20 23/4/23 19/8/19
f 15/43/15 3/47/3 18/48/18 16/44/16
f 117/115/181 130/116/182 129/112/180 118/111/179
f 120/141/178 128/142/177 131/136/183 121/138/184
f 116/119/185 132/120/186 130/116/182 117/115/181
f 12/11/12 11/7/11 19/8/19 9/12/9
f 115/124/187 133/125/188 132/120/186 116/119/185
f 3/47/3 2/51/2 5/52/5 18/48/18
f 114/128/189 134/129/190 133/125/188 115/124/187
f 113/132/191 135/133/192 134/129/190 114/128/189
f 131/136/183 135/133/192 113/132/191 112/137/193 121/138/184
f 128/15/177 12/11/12 9/12/9 8/16/8
f 2/278/2 129/279/180 6/280/6 5/281/5
f 131/19/183 128/15/177 8/16/8 122/20/171
f 129/279/180 130/282/182 123/283/172 6/280/6
f 135/23/192 131/19/183 122/20/171 124/24/173
f 130/282/182 132/284/186 125/285/174 123/283/172
f 134/27/190 135/23/192 124/24/173 126/28/175
f 132/35/186 133/31/188 127/32/176 125/36/174
f 133/31/188 134/27/190 126/28/175 127/32/176
