# This file uses centimeters as units for non-parametric coordinates.

mtllib Table2.mtl
g default
v -23.795418 0.723160 4.592817
v -19.456620 0.723160 4.592818
v -23.795418 3.521973 4.592817
v -19.456620 3.521973 4.592818
v -23.795418 3.521973 -2.943932
v -19.456620 3.521973 -2.943932
v -23.795418 0.723160 -2.943932
v -19.456620 0.723160 -2.943932
v -23.939733 3.828674 5.196147
v -19.312306 3.828674 5.196147
v -19.312306 3.828674 -3.547260
v -23.939733 3.828674 -3.547260
v -23.939733 3.521973 5.196147
v -19.312306 3.521973 5.196147
v -19.312306 3.521973 -3.547260
v -23.939733 3.521973 -3.547260
vt 0.367198 0.968787
vt 0.367198 0.703183
vt 0.632802 0.703183
vt 0.632802 0.968787
vt 0.039140 0.765976
vt 0.342532 0.756276
vt 0.349381 0.970455
vt 0.045988 0.980156
vt 0.687134 0.802185
vt 0.920667 0.805470
vt 0.918347 0.970332
vt 0.684815 0.967046
vt 0.689485 0.635074
vt 0.923017 0.638359
vt 0.920698 0.803221
vt 0.687166 0.799935
vt 0.342066 0.742554
vt 0.057502 0.745128
vt 0.055685 0.544240
vt 0.340249 0.541666
vt 0.642644 0.217131
vt 0.961572 0.217131
vt 0.961572 0.620209
vt 0.642644 0.620209
vt 0.460010 0.645406
vt 0.460010 0.209056
vt 0.489107 0.209056
vt 0.489107 0.645406
vt 0.492263 0.645406
vt 0.492263 0.209056
vt 0.521360 0.209056
vt 0.521360 0.645406
vt 0.524438 0.610208
vt 0.524438 0.209056
vt 0.553535 0.209056
vt 0.553535 0.610208
vt 0.585709 0.209057
vt 0.585709 0.610208
vt 0.556612 0.610208
vt 0.556612 0.209057
vt 0.069529 0.489911
vt 0.426035 0.489911
vt 0.437893 0.518450
vt 0.057671 0.518450
vt 0.426035 0.133405
vt 0.437893 0.104866
vt 0.069529 0.133405
vt 0.057671 0.104866
vn -0.000000 0.000000 1.000000
vn -0.000000 0.000000 1.000000
vn -0.000000 0.000000 1.000000
vn -0.000000 0.000000 1.000000
vn 0.000000 1.000000 0.000000
vn 0.000000 1.000000 0.000000
vn 0.000000 1.000000 0.000000
vn 0.000000 1.000000 0.000000
vn 0.000000 0.000000 -1.000000
vn 0.000000 0.000000 -1.000000
vn 0.000000 0.000000 -1.000000
vn 0.000000 0.000000 -1.000000
vn 0.000000 -1.000000 0.000000
vn 0.000000 -1.000000 0.000000
vn 0.000000 -1.000000 0.000000
vn 0.000000 -1.000000 0.000000
vn 1.000000 0.000000 0.000000
vn 1.000000 0.000000 0.000000
vn 1.000000 0.000000 0.000000
vn 1.000000 0.000000 0.000000
vn -1.000000 0.000000 0.000000
vn -1.000000 0.000000 0.000000
vn -1.000000 0.000000 0.000000
vn -1.000000 0.000000 0.000000
vn 0.000000 0.000000 1.000000
vn 0.000000 0.000000 1.000000
vn 0.000000 0.000000 1.000000
vn 0.000000 0.000000 1.000000
vn 1.000000 0.000000 0.000000
vn 1.000000 0.000000 0.000000
vn 1.000000 0.000000 0.000000
vn 1.000000 0.000000 0.000000
vn 0.000000 0.000000 -1.000000
vn 0.000000 0.000000 -1.000000
vn 0.000000 0.000000 -1.000000
vn 0.000000 0.000000 -1.000000
vn -1.000000 0.000000 0.000000
vn -1.000000 0.000000 0.000000
vn -1.000000 0.000000 0.000000
vn -1.000000 0.000000 0.000000
vn -0.000000 -1.000000 0.000000
vn -0.000000 -1.000000 0.000000
vn -0.000000 -1.000000 0.000000
vn -0.000000 -1.000000 0.000000
vn -0.000000 -1.000000 0.000000
vn -0.000000 -1.000000 0.000000
vn -0.000000 -1.000000 0.000000
vn -0.000000 -1.000000 0.000000
vn -0.000000 -1.000000 0.000000
vn -0.000000 -1.000000 0.000000
vn -0.000000 -1.000000 0.000000
vn -0.000000 -1.000000 0.000000
vn 0.000001 -1.000000 -0.000000
vn 0.000001 -1.000000 -0.000000
vn 0.000001 -1.000000 -0.000000
vn 0.000001 -1.000000 -0.000000
s off
g table2
usemtl initialShadingGroup
f 1/13/1 2/14/2 4/15/3 3/16/4
f 9/21/5 10/22/6 11/23/7 12/24/8
f 5/17/9 6/18/10 8/19/11 7/20/12
f 7/1/13 8/2/14 2/3/15 1/4/16
f 2/9/17 8/10/18 6/11/19 4/12/20
f 7/5/21 1/6/22 3/7/23 5/8/24
f 13/33/25 14/34/26 10/35/27 9/36/28
f 14/25/29 15/26/30 11/27/31 10/28/32
f 15/37/33 16/38/34 12/39/35 11/40/36
f 16/29/37 13/30/38 9/31/39 12/32/40
f 3/41/41 4/42/42 14/43/43 13/44/44
f 4/42/45 6/45/46 15/46/47 14/43/48
f 6/45/49 5/47/50 16/48/51 15/46/52
f 5/47/53 3/41/54 13/44/55 16/48/56
